<?xml version="1.0" encoding="utf-8"?>
<!-- Generator: Adobe Illustrator 16.0.0, SVG Export Plug-In . SVG Version: 6.00 Build 0)  -->
<!DOCTYPE svg PUBLIC "-//W3C//DTD SVG 1.1//EN" "http://www.w3.org/Graphics/SVG/1.1/DTD/svg11.dtd">
<svg version="1.1" id="Layer_1" xmlns="http://www.w3.org/2000/svg" x="0px"
     y="0px"
     width="1024px" height="134.5px" viewBox="0 0 1024 134.5" enable-background="new 0 0 1024 134.5"
     xml:space="preserve">
<g id="Layer_2">
	<g opacity="0.1">
		<polygon points="911.651,56.669 826.747,17.272 719.544,55.812 637.213,37.066 581.468,83.5 522.291,83.5 457.749,96.415 
			413.374,47.299 375.638,82.436 338.76,99.579 271.008,60.563 224.697,17.276 154.372,75.646 60.034,47.451 0,104.268 0,134.5 
			1024,134.5 1024,49.809 971.686,9.5 		"/>
	</g>
    <g>
		<polygon fill="#FFFFFF" points="911.651,62.669 826.747,23.272 719.544,61.812 637.213,43.066 581.468,89.5 522.291,89.5 
			457.749,102.415 413.374,53.299 375.638,88.436 338.76,105.579 271.008,66.563 224.697,23.276 154.372,81.646 60.034,53.451 
			0,113.268 0,134.5 1024,134.5 1024,58.809 971.686,15.5 		"/>
	</g>
</g>
    <g id="Layer_3">
	<circle opacity="0.2" fill="#020202" enable-background="new    " cx="59.083" cy="47.584" r="8.417"/>
        <circle fill="#FCFCFC" cx="59.083" cy="47.584" r="5.417"/>
        <circle opacity="0.2" fill="#020202" enable-background="new    " cx="154.083" cy="76.584" r="8.417"/>
        <circle fill="#FCFCFC" cx="154.083" cy="76.584" r="4.841"/>
        <circle opacity="0.2" fill="#020202" enable-background="new    " cx="225.083" cy="18.584" r="8.417"/>
        <circle fill="#FCFCFC" cx="225.083" cy="18.584" r="5.229"/>
        <circle opacity="0.2" fill="#020202" enable-background="new    " cx="272.167" cy="62.501" r="5.5"/>
        <circle fill="#FCFCFC" cx="272.167" cy="62.501" r="3.276"/>
        <circle opacity="0.2" fill="#020202" enable-background="new    " cx="339.167" cy="98.501" r="7"/>
        <circle fill="#FCFCFC" cx="339.167" cy="98.501" r="4.453"/>
        <circle opacity="0.2" fill="#020202" enable-background="new    " cx="413.167" cy="47.501" r="7"/>
        <circle fill="#FCFCFC" cx="413.167" cy="47.501" r="3.67"/>
        <circle opacity="0.2" fill="#020202" enable-background="new    " cx="457.749" cy="99.415" r="7"/>
        <circle fill="#FCFCFC" cx="457.749" cy="99.415" r="4.086"/>
        <circle opacity="0.2" fill="#020202" enable-background="new    " cx="521.167" cy="83.501" r="7"/>
        <circle fill="#FCFCFC" cx="521.167" cy="83.501" r="4.252"/>
        <circle opacity="0.2" fill="#020202" enable-background="new    " cx="581.167" cy="83.501" r="7"/>
        <circle fill="#FCFCFC" cx="581.167" cy="83.501" r="3.868"/>
        <circle opacity="0.2" fill="#020202" enable-background="new    " cx="637.167" cy="38.501" r="7"/>
        <circle fill="#FCFCFC" cx="637.167" cy="38.501" r="3.94"/>
        <circle opacity="0.2" fill="#020202" enable-background="new    " cx="719.167" cy="56.501" r="7"/>
        <circle fill="#FCFCFC" cx="719.167" cy="56.501" r="3.836"/>
        <circle opacity="0.2" fill="#020202" enable-background="new    " cx="827.167" cy="18.501" r="7"/>
        <circle fill="#FCFCFC" cx="827.167" cy="18.501" r="3.836"/>
        <circle opacity="0.2" fill="#020202" enable-background="new    " cx="911.167" cy="57.501" r="7"/>
        <circle fill="#FCFCFC" cx="911.167" cy="57.501" r="4.586"/>
        <circle opacity="0.2" fill="#020202" enable-background="new    " cx="972.167" cy="9.501" r="7"/>
        <circle fill="#FCFCFC" cx="972.167" cy="9.501" r="3.836"/>
        <circle opacity="0.2" fill="#020202" enable-background="new    " cx="1019.227" cy="45.643" r="3.06"/>
        <circle fill="#FCFCFC" cx="1019.227" cy="45.643" r="1.581"/>
        <circle opacity="0.2" fill="#020202" enable-background="new    " cx="374.167" cy="83.5" r="3.027"/>
        <circle fill="#FCFCFC" cx="374.167" cy="83.5" r="1.902"/>
</g>
</svg>
