<?xml version="1.0" encoding="utf-8"?>
<!-- Generator: Adobe Illustrator 16.0.0, SVG Export Plug-In . SVG Version: 6.00 Build 0)  -->
<!DOCTYPE svg PUBLIC "-//W3C//DTD SVG 1.1//EN" "http://www.w3.org/Graphics/SVG/1.1/DTD/svg11.dtd">
<svg version="1.1" id="Layer_1" xmlns="http://www.w3.org/2000/svg" xmlns:xlink="http://www.w3.org/1999/xlink" x="0px" y="0px"
	 width="114.499px" height="31.5px" viewBox="0 0 114.499 31.5" enable-background="new 0 0 114.499 31.5" xml:space="preserve">
<g>
	<circle fill="#FFFFFF" cx="110.069" cy="27.116" r="3.297"/>
</g>
<g>
	<path fill="#FFFFFF" d="M18.683,7.14c-0.201,0.321-0.411,0.561-0.631,0.722c-0.221,0.16-0.505,0.24-0.852,0.24
		c-0.308,0-0.638-0.097-0.992-0.291C15.853,7.618,15.452,7.4,15.004,7.16c-0.448-0.241-0.959-0.458-1.534-0.651
		c-0.575-0.194-1.229-0.291-1.964-0.291c-1.27,0-2.215,0.271-2.836,0.812C8.048,7.571,7.738,8.303,7.738,9.225
		c0,0.588,0.187,1.076,0.561,1.463c0.374,0.388,0.865,0.722,1.474,1.002c0.608,0.281,1.303,0.538,2.084,0.772
		s1.58,0.494,2.396,0.782c0.815,0.287,1.614,0.625,2.396,1.012s1.477,0.882,2.085,1.483c0.608,0.601,1.099,1.333,1.473,2.195
		c0.374,0.862,0.562,1.901,0.562,3.117c0,1.35-0.234,2.613-0.702,3.789c-0.468,1.176-1.146,2.201-2.035,3.076
		c-0.889,0.876-1.985,1.564-3.288,2.065c-1.303,0.501-2.783,0.751-4.44,0.751c-0.909,0-1.834-0.093-2.776-0.28
		c-0.942-0.187-1.854-0.451-2.736-0.792c-0.882-0.341-1.711-0.744-2.486-1.213c-0.775-0.467-1.45-0.988-2.024-1.563l2.004-3.167
		c0.147-0.24,0.354-0.434,0.622-0.581c0.267-0.147,0.554-0.221,0.862-0.221c0.401,0,0.805,0.127,1.213,0.381
		c0.407,0.254,0.869,0.534,1.383,0.842c0.514,0.308,1.105,0.588,1.774,0.842c0.668,0.254,1.457,0.381,2.365,0.381
		c1.229,0,2.185-0.271,2.867-0.812s1.022-1.399,1.022-2.576c0-0.682-0.187-1.235-0.561-1.664c-0.375-0.427-0.865-0.781-1.473-1.062
		c-0.608-0.281-1.3-0.528-2.075-0.742s-1.57-0.451-2.385-0.712c-0.815-0.26-1.61-0.581-2.385-0.962
		c-0.775-0.381-1.467-0.882-2.075-1.503c-0.608-0.621-1.1-1.396-1.474-2.325c-0.374-0.929-0.561-2.075-0.561-3.438
		c0-1.096,0.22-2.165,0.662-3.207c0.441-1.042,1.089-1.971,1.944-2.787c0.855-0.815,1.904-1.466,3.147-1.954s2.666-0.732,4.27-0.732
		c0.895,0,1.767,0.07,2.616,0.21c0.849,0.141,1.654,0.348,2.416,0.622s1.473,0.601,2.135,0.982s1.253,0.812,1.774,1.293L18.683,7.14
		z"/>
	<path fill="#FFFFFF" d="M33.396,9.305c1.577,0,3.014,0.247,4.31,0.742c1.296,0.494,2.409,1.203,3.337,2.125
		c0.929,0.922,1.65,2.042,2.165,3.358c0.514,1.316,0.771,2.796,0.771,4.44c0,1.657-0.257,3.15-0.771,4.479
		c-0.515,1.33-1.236,2.459-2.165,3.388c-0.929,0.93-2.042,1.645-3.337,2.146c-1.296,0.501-2.733,0.751-4.31,0.751
		c-1.59,0-3.037-0.25-4.34-0.751c-1.303-0.501-2.425-1.216-3.368-2.146c-0.942-0.929-1.67-2.058-2.185-3.388
		c-0.515-1.329-0.771-2.822-0.771-4.479c0-1.645,0.257-3.124,0.771-4.44s1.243-2.436,2.185-3.358
		c0.942-0.922,2.065-1.63,3.368-2.125C30.359,9.552,31.805,9.305,33.396,9.305z M33.396,26.123c1.43,0,2.482-0.504,3.157-1.514
		c0.675-1.009,1.012-2.542,1.012-4.6c0-2.059-0.337-3.589-1.012-4.591c-0.675-1.002-1.728-1.503-3.157-1.503
		c-1.47,0-2.546,0.501-3.227,1.503c-0.682,1.002-1.022,2.532-1.022,4.591c0,2.058,0.341,3.591,1.022,4.6
		C30.85,25.619,31.925,26.123,33.396,26.123z"/>
	<path fill="#FFFFFF" d="M48.309,30.413V13.896l-1.363-0.281c-0.468-0.107-0.845-0.274-1.132-0.501
		c-0.288-0.227-0.431-0.562-0.431-1.002V9.666h2.927V8.483c0-1.189,0.19-2.265,0.571-3.227c0.381-0.962,0.929-1.784,1.644-2.466
		s1.587-1.209,2.616-1.583c1.029-0.374,2.198-0.562,3.508-0.562c0.508,0,0.979,0.03,1.413,0.09c0.435,0.06,0.885,0.157,1.354,0.291
		l-0.121,3.027c-0.013,0.214-0.07,0.391-0.17,0.531c-0.1,0.141-0.224,0.254-0.371,0.341c-0.147,0.087-0.311,0.15-0.491,0.19
		s-0.358,0.061-0.531,0.061c-0.548,0-1.036,0.053-1.463,0.16s-0.785,0.297-1.072,0.571c-0.288,0.274-0.505,0.635-0.651,1.083
		c-0.147,0.448-0.221,1.012-0.221,1.694v0.982h4.891v4.25h-4.69v16.498H48.309z"/>
	<path fill="#FFFFFF" d="M69.197,30.733c-0.989,0-1.861-0.144-2.616-0.431s-1.39-0.694-1.904-1.223
		c-0.515-0.527-0.905-1.166-1.172-1.914c-0.268-0.749-0.401-1.584-0.401-2.506V13.916h-1.764c-0.321,0-0.595-0.104-0.822-0.311
		c-0.228-0.207-0.341-0.511-0.341-0.912v-2.426l3.308-0.642l1.223-5.071c0.16-0.642,0.614-0.962,1.363-0.962h3.247v6.074h5.051v4.25
		h-5.051v10.324c0,0.48,0.117,0.879,0.351,1.192c0.233,0.314,0.571,0.471,1.012,0.471c0.227,0,0.417-0.022,0.571-0.069
		c0.154-0.047,0.287-0.101,0.401-0.161c0.113-0.06,0.221-0.113,0.321-0.16c0.1-0.047,0.217-0.07,0.35-0.07
		c0.188,0,0.338,0.044,0.451,0.131s0.23,0.224,0.352,0.411l1.884,2.946c-0.802,0.602-1.704,1.053-2.706,1.354
		C71.302,30.583,70.266,30.733,69.197,30.733z"/>
	<path fill="#FFFFFF" d="M85.073,3.933c0,0.495-0.101,0.959-0.301,1.393c-0.2,0.435-0.475,0.815-0.822,1.143
		c-0.348,0.328-0.752,0.588-1.213,0.782s-0.952,0.291-1.473,0.291c-0.509,0-0.982-0.097-1.424-0.291
		c-0.44-0.194-0.832-0.455-1.173-0.782c-0.341-0.327-0.607-0.708-0.802-1.143c-0.193-0.434-0.29-0.898-0.29-1.393
		c0-0.508,0.097-0.982,0.29-1.423c0.194-0.441,0.461-0.828,0.802-1.163c0.341-0.333,0.732-0.594,1.173-0.782
		c0.441-0.187,0.915-0.281,1.424-0.281c0.521,0,1.012,0.094,1.473,0.281c0.461,0.188,0.865,0.448,1.213,0.782
		c0.348,0.334,0.622,0.722,0.822,1.163C84.973,2.951,85.073,3.425,85.073,3.933z M84.352,9.625v20.788h-6.215V9.625H84.352z"/>
	<path fill="#FFFFFF" d="M103.715,30.413c-0.588,0-1.032-0.08-1.333-0.24c-0.301-0.161-0.551-0.494-0.751-1.003l-0.441-1.143
		c-0.521,0.441-1.022,0.829-1.503,1.163c-0.481,0.334-0.979,0.618-1.494,0.852c-0.515,0.234-1.063,0.408-1.644,0.521
		s-1.227,0.17-1.935,0.17c-0.949,0-1.811-0.124-2.586-0.372s-1.433-0.613-1.975-1.096c-0.541-0.482-0.959-1.083-1.253-1.8
		c-0.294-0.718-0.44-1.545-0.44-2.483c0-0.737,0.187-1.495,0.562-2.272c0.374-0.777,1.021-1.485,1.944-2.122
		c0.922-0.637,2.165-1.17,3.729-1.599s3.534-0.644,5.913-0.644v-0.891c0-1.227-0.25-2.114-0.752-2.66
		c-0.501-0.546-1.213-0.819-2.135-0.819c-0.735,0-1.336,0.08-1.804,0.241c-0.468,0.16-0.886,0.341-1.253,0.541
		c-0.368,0.201-0.726,0.381-1.072,0.542c-0.348,0.16-0.762,0.24-1.243,0.24c-0.428,0-0.792-0.103-1.093-0.311
		c-0.301-0.207-0.538-0.464-0.711-0.772l-1.123-1.944c1.256-1.109,2.649-1.935,4.18-2.476s3.17-0.812,4.921-0.812
		c1.256,0,2.389,0.204,3.398,0.611c1.009,0.408,1.864,0.976,2.565,1.704c0.701,0.729,1.239,1.594,1.613,2.596
		c0.374,1.002,0.562,2.099,0.562,3.288v12.989H103.715z M96.579,26.624c0.802,0,1.503-0.14,2.104-0.421
		c0.602-0.28,1.21-0.734,1.824-1.362v-2.847c-1.243,0-2.265,0.081-3.066,0.242c-0.803,0.162-1.438,0.364-1.905,0.607
		c-0.468,0.242-0.791,0.519-0.972,0.829c-0.181,0.31-0.271,0.646-0.271,1.011c0,0.714,0.193,1.217,0.581,1.506
		C95.263,26.479,95.83,26.624,96.579,26.624z"/>
</g>
</svg>
